<?xml version="1.0" encoding="utf-8"?>
<!-- Generator: Adobe Illustrator 26.0.1, SVG Export Plug-In . SVG Version: 6.00 Build 0)  -->
<svg version="1.1" id="Capa_1" xmlns="http://www.w3.org/2000/svg" xmlns:xlink="http://www.w3.org/1999/xlink" x="0px" y="0px"
	 viewBox="0 0 645.1 411.4" style="enable-background:new 0 0 645.1 411.4;" xml:space="preserve">
<style type="text/css">
	.st0{fill:#414C55;}
	.st1{fill:#FF7800;}
	.st2{fill:#FFFFFF;}
</style>
<g>
	<path class="st0" d="M143.8,269.6h9.1L137.3,312H127l-15.6-42.4h9.1l11.7,33.7L143.8,269.6z"/>
	<path class="st0" d="M157.9,269.6h8.5V312h-8.5V269.6z"/>
	<path class="st0" d="M214.1,282.4h-9.8c-1.9-3.6-5.5-5.5-10-5.5c-7.6,0-12.9,5.4-12.9,13.9c0,8.6,5.3,14,13.2,14
		c6.6,0,10.8-3.8,12-9.8H192v-6.5h23v7.4c-1.7,8.6-9.4,16.5-20.7,16.5c-12.3,0-21.7-8.9-21.7-21.6s9.4-21.7,21.6-21.7
		C203.9,269.1,211.4,273.9,214.1,282.4z"/>
	<path class="st0" d="M221.5,269.6h8.5V312h-8.5V269.6z"/>
	<path class="st0" d="M264.4,303.9h-16.9l-2.8,8.1h-8.9l15.2-42.5h9.9l15.2,42.5h-9L264.4,303.9z M255.9,279.4l-6.1,17.7h12.3
		L255.9,279.4z"/>
	<path class="st1" d="M298.6,269.7h5.5V312h-5.5V269.7z"/>
	<path class="st1" d="M337.9,293.2c0-6.8-3.7-10.3-9.3-10.3c-5.7,0-9.5,3.5-9.5,10.7V312h-5.5v-33.3h5.5v4.7
		c2.2-3.5,6.2-5.3,10.7-5.3c7.7,0,13.6,4.7,13.6,14.3V312h-5.5L337.9,293.2L337.9,293.2z"/>
	<path class="st1" d="M353.6,283.3h-4.3v-4.6h4.3v-8.4h5.5v8.4h8.7v4.6h-8.7v19.6c0,3.3,1.2,4.4,4.6,4.4h4.1v4.7h-5
		c-5.9,0-9.2-2.4-9.2-9.1V283.3L353.6,283.3z"/>
	<path class="st1" d="M388.9,312.6c-9.5,0-16.5-6.7-16.5-17.3c0-10.5,6.7-17.1,16.5-17.1c9.7,0,16,6.8,16,15.9
		c0,1.2-0.1,2.2-0.2,3.3h-26.6c0.4,6.7,5.2,10.5,10.8,10.5c5,0,8.1-2.6,9.4-6.1h6C402.6,307.8,397.2,312.6,388.9,312.6z
		 M378.2,292.9h21c0.1-6.5-4.8-10.1-10.5-10.1C383.3,282.9,378.8,286.4,378.2,292.9z"/>
	<path class="st1" d="M412.2,267.1h5.5v45h-5.5V267.1z"/>
	<path class="st1" d="M427.2,267.1h5.5v45h-5.5V267.1z"/>
	<path class="st1" d="M441.2,269.6c0-2.1,1.6-3.8,3.8-3.8c2,0,3.6,1.6,3.6,3.8c0,2.1-1.6,3.8-3.6,3.8
		C442.8,273.3,441.2,271.7,441.2,269.6z M442.1,278.7h5.5V312h-5.5V278.7z"/>
	<path class="st1" d="M470.8,278.2c6.1,0,10.5,3,12.4,6.6v-6.1h5.6v34c0,9.2-6.1,15.7-15.9,15.7c-8.7,0-15-4.4-16.1-11.5h5.5
		c1.2,4,5.2,6.7,10.6,6.7c5.9,0,10.3-3.8,10.3-10.9v-7c-2,3.6-6.3,6.8-12.4,6.8c-8.9,0-15.8-7-15.8-17.3
		C455,284.9,461.9,278.2,470.8,278.2z M471.9,283c-6.1,0-11.2,4.4-11.2,12.3s5.2,12.5,11.2,12.5s11.3-4.6,11.3-12.4
		S478,283,471.9,283z"/>
	<path class="st1" d="M512.5,312.6c-9.5,0-16.5-6.7-16.5-17.3c0-10.5,6.7-17.1,16.5-17.1c9.7,0,16,6.8,16,15.9
		c0,1.2-0.1,2.2-0.2,3.3h-26.6c0.4,6.7,5.2,10.5,10.8,10.5c5,0,8.1-2.6,9.4-6.1h6C526.1,307.8,520.8,312.6,512.5,312.6z
		 M501.8,292.9h21c0.1-6.5-4.8-10.1-10.5-10.1C506.9,282.9,502.4,286.4,501.8,292.9z"/>
	<path class="st1" d="M560.2,293.2c0-6.8-3.7-10.3-9.3-10.3s-9.5,3.5-9.5,10.7V312h-5.5v-33.3h5.5v4.7c2.2-3.5,6.2-5.3,10.7-5.3
		c7.7,0,13.6,4.7,13.6,14.3V312h-5.5V293.2z"/>
	<path class="st1" d="M575.9,283.3h-4.3v-4.6h4.3v-8.4h5.5v8.4h8.7v4.6h-8.7v19.6c0,3.3,1.2,4.4,4.6,4.4h4.1v4.7h-5
		c-5.9,0-9.2-2.4-9.2-9.1L575.9,283.3L575.9,283.3z"/>
	<path class="st1" d="M208.8,375.5h-18.5l-3.4,9.4h-5.8l15.3-42.1h6.4l15.2,42.1h-5.8L208.8,375.5z M199.6,349.6l-7.7,21.4h15.3
		L199.6,349.6z"/>
	<path class="st1" d="M254.3,384.9h-5.5V380c-2.1,3.5-6.2,5.4-10.6,5.4c-7.7,0-13.7-4.7-13.7-14.3v-19.5h5.5v18.8
		c0,6.7,3.7,10.2,9.3,10.2c5.7,0,9.5-3.5,9.5-10.7v-18.3h5.5V384.9L254.3,384.9z"/>
	<path class="st1" d="M264.9,356.2h-4.3v-4.6h4.3v-8.4h5.5v8.4h8.7v4.6h-8.7v19.6c0,3.3,1.2,4.4,4.6,4.4h4.1v4.7h-5
		c-5.9,0-9.2-2.4-9.2-9.1V356.2z"/>
	<path class="st1" d="M300.3,385.5c-9.4,0-16.6-6.7-16.6-17.3c0-10.5,7.4-17.1,16.8-17.1c9.5,0,16.8,6.6,16.8,17.1
		C317.4,378.8,309.8,385.5,300.3,385.5z M300.3,380.6c5.8,0,11.4-3.9,11.4-12.4c0-8.4-5.5-12.3-11.2-12.3c-5.8,0-11.1,3.9-11.1,12.3
		C289.4,376.7,294.5,380.6,300.3,380.6z"/>
	<path class="st1" d="M372.7,366.1c0-6.8-3.6-10.3-9.1-10.3c-5.6,0-9.4,3.6-9.4,10.8v18.3h-5.5v-18.8c0-6.8-3.6-10.3-9.1-10.3
		c-5.6,0-9.4,3.6-9.4,10.8v18.3h-5.5v-33.3h5.5v4.8c2.2-3.5,6.1-5.4,10.5-5.4c5.5,0,10,2.4,12.2,7.4c1.9-4.8,6.7-7.4,11.8-7.4
		c7.6,0,13.5,4.7,13.5,14.3v19.6h-5.5V366.1z"/>
	<path class="st1" d="M401,351.1c6.2,0,10.5,3.2,12.4,6.6v-6.1h5.6v33.3h-5.6v-6.2c-2,3.6-6.3,6.7-12.5,6.7c-8.9,0-15.7-7-15.7-17.3
		S392,351.1,401,351.1z M402.1,355.9c-6.1,0-11.2,4.4-11.2,12.3s5.2,12.5,11.2,12.5s11.3-4.6,11.3-12.4S408.1,355.9,402.1,355.9z"/>
	<path class="st1" d="M429.5,356.2h-4.3v-4.6h4.3v-8.4h5.5v8.4h8.7v4.6H435v19.6c0,3.3,1.2,4.4,4.6,4.4h4.1v4.7h-5
		c-5.9,0-9.2-2.4-9.2-9.1V356.2L429.5,356.2z"/>
	<path class="st1" d="M465,385.5c-9.4,0-16.6-6.7-16.6-17.3c0-10.5,7.4-17.1,16.8-17.1c9.5,0,16.8,6.6,16.8,17.1
		C482,378.8,474.4,385.5,465,385.5z M465,380.6c5.8,0,11.4-3.9,11.4-12.4c0-8.4-5.5-12.3-11.2-12.3c-5.8,0-11.1,3.9-11.1,12.3
		C454,376.7,459.2,380.6,465,380.6z"/>
	<path class="st1" d="M513.7,366.1c0-6.8-3.7-10.3-9.3-10.3s-9.5,3.5-9.5,10.7v18.4h-5.5v-33.3h5.5v4.7c2.2-3.5,6.2-5.3,10.7-5.3
		c7.7,0,13.6,4.7,13.6,14.3v19.6h-5.5V366.1z"/>
	<g>
		<g>
			<g>
				<path class="st0" d="M276.1,77.8h12.3L254.8,167h-13.4l-33.6-89.2h12.4l28,76.9L276.1,77.8z"/>
				<path class="st0" d="M294.7,140h28.1v9.1h-28.1V140z"/>
				<path class="st0" d="M336.4,77.5c0-4.5,3.5-7.9,7.9-7.9c4.2,0,7.7,3.5,7.7,7.9c0,4.5-3.5,7.9-7.7,7.9
					C339.8,85.5,336.4,82,336.4,77.5z M338.3,96.9h11.6V167h-11.6V96.9L338.3,96.9z"/>
				<path class="st0" d="M422.5,147.1h-38.9l-7.2,19.8h-12.3l32.2-88.7h13.4l32.1,88.7h-12.3L422.5,147.1z M403,92.6l-16.1,45h32.2
					L403,92.6z"/>
				<path class="st0" d="M498.8,92v7.2L469.9,167h-9.6l29.3-66.8h-40.1v-8.1L498.8,92L498.8,92z"/>
				<path class="st0" d="M533.8,90.4c14.7,0,22.7,8.5,22.7,19.3c0,8.6-5.4,15.4-13.3,17.2v0.5c8.7,2.1,14.7,8.5,14.7,19.3
					c0,11.6-8.1,20.8-23.8,20.8c-14.2,0-24.8-7.6-26-22.1h9.1c0.9,8,6.8,14.1,16.7,14.1c10.1,0,14.9-5.9,14.9-13.6
					c0-10.6-7.4-14.7-20.9-14.7h-2.4v-7.9h2.5c12.6-0.1,19.3-4,19.3-12.7c0-7.2-4.8-12.2-13.8-12.2c-8.8,0-14.1,5-15.1,12.3h-9.3
					C510.1,97.8,519.8,90.4,533.8,90.4z"/>
				<path class="st0" d="M570.8,102.7c0-15.1,10.7-26.1,26-26.1c15.1,0,25.8,11,25.8,26.1s-10.7,26.2-25.8,26.2
					C581.5,129,570.8,117.8,570.8,102.7z M576.3,102.7c0,12.4,7.9,21.1,20.5,21.1c12.4,0,20.6-8.7,20.6-21.1s-8.2-21.1-20.6-21.1
					C584.2,81.6,576.3,90.3,576.3,102.7z M602.2,105.6l7.2,10.6l-8.1,0.1l-6.1-10.2H593v10.2h-6.7V88.8h12.3c5.8,0,9.6,3.3,9.6,8.6
					C608.2,101.5,605.9,104.4,602.2,105.6z M593,94.8v5.8h5.2c1.8,0,3.3-0.9,3.3-2.9s-1.5-2.8-3.3-2.8L593,94.8L593,94.8z"/>
			</g>
		</g>
		<g>
			<g>
				<g>
					<path class="st1" d="M180.5,102.6c-0.9-7.2-3.9-13-5.2-15.2c0.9-15.1-2.1-26.4-8.9-33.8c-5.3-5.7-11.5-7.3-14.7-7.8
						c-4.8-10.2-13-12.1-18-11.7c-9.3-8.7-17.9-8.9-23.6-7.5c-3.7,0.9-6.7,2.7-8.5,4c-1.8-1.3-4.7-3.1-8.5-4
						c-5.7-1.4-14.3-1.2-23.6,7.5c-5-0.5-13.2,1.5-18,11.7c-3.2,0.5-9.4,2.1-14.7,7.8C30,60.9,27,72.3,27.9,87.4
						c-1.3,2.2-4.3,7.9-5.2,15.2c-1,8.2,0.5,19.8,13.4,29.2c-1.5,8.8-0.1,23.9,14,31.3c-0.6,3.2-1,8.7,1.9,13.5
						c2.2,3.7,5.9,6.2,11,7.3c2.6,4,11.4,16.2,22.4,16.2c0.1,0,0.1,0,0.2,0c5.9-0.1,11.3-3.6,15.9-10.4c4.7,6.8,10,10.3,15.9,10.4
						c11.1,0.2,20.1-12.2,22.6-16.2c5.1-1.1,8.8-3.6,11-7.3c2.9-4.7,2.5-10.3,1.9-13.5c14-7.4,15.4-22.6,14-31.3
						C179.9,122.4,181.5,110.8,180.5,102.6z M162,128c-1.1,0.7-1.6,2-1.3,3.2c0.2,0.8,4.8,20.1-12.4,27.5c-1.4,0.6-2.2,2.2-1.7,3.7
						c0,0.1,2.1,6.5-0.7,11.1c-1.5,2.5-4.3,4.1-8.2,4.7c-0.9,0.1-1.7,0.7-2.1,1.5c-2.4,4-10.2,14.4-18,14.4h-0.1
						c-4.7-0.1-9.2-3.9-13.3-11.5c-0.5-1-1.7-1.6-2.8-1.6c-1.1,0-2.1,0.6-2.6,1.6c-4.1,7.6-8.6,11.4-13.3,11.5
						c-7.8,0.1-15.7-10.4-18.1-14.4c-0.5-0.8-1.2-1.3-2.1-1.5c-4-0.7-6.7-2.2-8.2-4.7c-2.8-4.6-0.7-11-0.7-11.1
						c0.5-1.5-0.2-3.1-1.7-3.7c-17.1-7.3-12.6-26.7-12.4-27.5c0.3-1.2-0.2-2.5-1.3-3.2c-22.5-15-8.2-37.2-7.6-38.1
						c0.4-0.6,0.5-1.2,0.5-1.9c-1-13.8,1.4-23.9,7.1-30.1c5.5-6,12.1-6.1,12.4-6.1c1.2,0,2.3-0.8,2.8-1.9c3.4-8.4,8.8-9.6,11.6-9.6
						c0.9,0,1.5,0.1,1.8,0.2c1,0.3,2.1,0,2.9-0.8c6.1-6.1,12.4-8.5,18.8-7c4.8,1.1,8,4.2,8,4.2c0.6,0.6,1.3,0.9,2.1,0.9h0.1
						c0.8,0,1.6-0.3,2.1-0.9c0,0,3.1-3,7.8-4.1c6.4-1.6,12.8,0.7,19,7c0.7,0.7,1.8,1,2.8,0.8c0.9-0.2,8.9-1.7,13.4,9.5
						c0.5,1.1,1.6,1.9,2.8,1.9c0.3,0,6.9,0.2,12.4,6.1c5.7,6.2,8.1,16.3,7.1,30.1c0,0.7,0.1,1.3,0.5,1.9c0,0.1,3.8,5.8,4.8,13.5
						C175.7,113.4,171.5,121.6,162,128z"/>
				</g>
			</g>
			<g>
				<g>
					<path class="st1" d="M101.6,31.6c-1.7,0-3,1.4-3,3V184c0,1.7,1.4,3,3,3c1.7,0,3-1.3,3-3V34.6C104.6,33,103.3,31.6,101.6,31.6z"
						/>
				</g>
			</g>
			<g>
				<g>
					<path class="st1" d="M71.4,53.3c-6.7,0-12.1,5.4-12.1,12.1s5.4,12.1,12.1,12.1s12.1-5.4,12.1-12.1S78.1,53.3,71.4,53.3z
						 M71.4,71.4c-3.3,0-6-2.7-6-6c0-3.3,2.7-6,6-6s6,2.7,6,6C77.4,68.7,74.7,71.4,71.4,71.4z"/>
				</g>
			</g>
			<g>
				<g>
					<path class="st1" d="M50.3,92.5c-6.7,0-12.1,5.4-12.1,12.1s5.4,12.1,12.1,12.1s12.1-5.4,12.1-12.1C62.4,97.9,57,92.5,50.3,92.5
						z M50.3,110.6c-3.3,0-6-2.7-6-6s2.7-6,6-6s6,2.7,6,6S53.6,110.6,50.3,110.6z"/>
				</g>
			</g>
			<g>
				<g>
					<path class="st1" d="M80.5,119.6c-6.7,0-12.1,5.4-12.1,12.1s5.4,12.1,12.1,12.1s12.1-5.4,12.1-12.1S87.1,119.6,80.5,119.6z
						 M80.5,137.7c-3.3,0-6-2.7-6-6s2.7-6,6-6s6,2.7,6,6S83.8,137.7,80.5,137.7z"/>
				</g>
			</g>
			<g>
				<g>
					<path class="st1" d="M80.5,152.8c-6.7,0-12.1,5.4-12.1,12.1c0,6.7,5.4,12.1,12.1,12.1s12.1-5.4,12.1-12.1
						C92.5,158.2,87.1,152.8,80.5,152.8z M80.5,170.9c-3.3,0-6-2.7-6-6s2.7-6,6-6s6,2.7,6,6S83.8,170.9,80.5,170.9z"/>
				</g>
			</g>
			<g>
				<g>
					<path class="st1" d="M71.4,71.4c-1.7,0-3,1.4-3,3v30.2c0,1.7,1.4,3,3,3c1.7,0,3-1.3,3-3V74.4C74.4,72.7,73.1,71.4,71.4,71.4z"
						/>
				</g>
			</g>
			<g>
				<g>
					<path class="st1" d="M80.5,101.5H59.4c-1.7,0-3,1.4-3,3c0,1.7,1.4,3,3,3h21.1c1.7,0,3-1.4,3-3S82.1,101.5,80.5,101.5z"/>
				</g>
			</g>
			<g>
				<g>
					<path class="st1" d="M80.5,101.5c-1.7,0-3,1.4-3,3v18.1c0,1.7,1.4,3,3,3c1.7,0,3-1.3,3-3v-18.1
						C83.5,102.9,82.1,101.5,80.5,101.5z"/>
				</g>
			</g>
			<g>
				<g>
					<path class="st1" d="M80.5,137.7c-1.7,0-3,1.4-3,3v15.1c0,1.7,1.4,3,3,3c1.7,0,3-1.3,3-3v-15.1
						C83.5,139.1,82.1,137.7,80.5,137.7z"/>
				</g>
			</g>
			<circle class="st1" cx="70.9" cy="65.9" r="8.5"/>
			<circle class="st1" cx="50.3" cy="104.5" r="8.5"/>
			<circle class="st1" cx="80.5" cy="131.7" r="8.5"/>
			<circle class="st1" cx="80.5" cy="164.9" r="8.5"/>
		</g>
	</g>
</g>
<g>
	<path class="st2" d="M143.8-186h9.1l-15.6,42.4H127L111.4-186h9.1l11.7,33.7L143.8-186z"/>
	<path class="st2" d="M157.9-186h8.5v42.4h-8.5V-186z"/>
	<path class="st2" d="M214.1-173.2h-9.8c-1.9-3.6-5.5-5.5-10-5.5c-7.6,0-12.9,5.4-12.9,13.9c0,8.6,5.3,14,13.2,14
		c6.6,0,10.8-3.8,12-9.8H192v-6.5h23v7.4c-1.7,8.6-9.4,16.5-20.7,16.5c-12.3,0-21.7-8.9-21.7-21.6s9.4-21.7,21.6-21.7
		C203.9-186.5,211.4-181.7,214.1-173.2z"/>
	<path class="st2" d="M221.5-186h8.5v42.4h-8.5V-186z"/>
	<path class="st2" d="M264.4-151.7h-16.9l-2.8,8.1h-8.9l15.2-42.5h9.9l15.2,42.5h-9L264.4-151.7z M255.9-176.2l-6.1,17.7h12.3
		L255.9-176.2z"/>
	<path class="st2" d="M298.6-185.9h5.5v42.3h-5.5V-185.9z"/>
	<path class="st2" d="M337.9-162.4c0-6.8-3.7-10.3-9.3-10.3c-5.7,0-9.5,3.5-9.5,10.7v18.4h-5.5v-33.3h5.5v4.7
		c2.2-3.5,6.2-5.3,10.7-5.3c7.7,0,13.6,4.7,13.6,14.3v19.6h-5.5L337.9-162.4L337.9-162.4z"/>
	<path class="st2" d="M353.6-172.3h-4.3v-4.6h4.3v-8.4h5.5v8.4h8.7v4.6h-8.7v19.6c0,3.3,1.2,4.4,4.6,4.4h4.1v4.7h-5
		c-5.9,0-9.2-2.4-9.2-9.1V-172.3L353.6-172.3z"/>
	<path class="st2" d="M388.9-143c-9.5,0-16.5-6.7-16.5-17.3c0-10.5,6.7-17.1,16.5-17.1c9.7,0,16,6.8,16,15.9c0,1.2-0.1,2.2-0.2,3.3
		h-26.6c0.4,6.7,5.2,10.5,10.8,10.5c5,0,8.1-2.6,9.4-6.1h6C402.6-147.8,397.2-143,388.9-143z M378.2-162.7h21
		c0.1-6.5-4.8-10.1-10.5-10.1C383.3-172.7,378.8-169.2,378.2-162.7z"/>
	<path class="st2" d="M412.2-188.5h5.5v45h-5.5V-188.5z"/>
	<path class="st2" d="M427.2-188.5h5.5v45h-5.5V-188.5z"/>
	<path class="st2" d="M441.2-186c0-2.1,1.6-3.8,3.8-3.8c2,0,3.6,1.6,3.6,3.8c0,2.1-1.6,3.8-3.6,3.8
		C442.8-182.3,441.2-183.9,441.2-186z M442.1-176.9h5.5v33.3h-5.5V-176.9z"/>
	<path class="st2" d="M470.8-177.4c6.1,0,10.5,3,12.4,6.6v-6.1h5.6v34c0,9.2-6.1,15.7-15.9,15.7c-8.7,0-15-4.4-16.1-11.5h5.5
		c1.2,4,5.2,6.7,10.6,6.7c5.9,0,10.3-3.8,10.3-10.9v-7c-2,3.6-6.3,6.8-12.4,6.8c-8.9,0-15.8-7-15.8-17.3
		C455-170.7,461.9-177.4,470.8-177.4z M471.9-172.6c-6.1,0-11.2,4.4-11.2,12.3s5.2,12.5,11.2,12.5s11.3-4.6,11.3-12.4
		S478-172.6,471.9-172.6z"/>
	<path class="st2" d="M512.5-143c-9.5,0-16.5-6.7-16.5-17.3c0-10.5,6.7-17.1,16.5-17.1c9.7,0,16,6.8,16,15.9c0,1.2-0.1,2.2-0.2,3.3
		h-26.6c0.4,6.7,5.2,10.5,10.8,10.5c5,0,8.1-2.6,9.4-6.1h6C526.1-147.8,520.8-143,512.5-143z M501.8-162.7h21
		c0.1-6.5-4.8-10.1-10.5-10.1C506.9-172.7,502.4-169.2,501.8-162.7z"/>
	<path class="st2" d="M560.2-162.4c0-6.8-3.7-10.3-9.3-10.3s-9.5,3.5-9.5,10.7v18.4h-5.5v-33.3h5.5v4.7c2.2-3.5,6.2-5.3,10.7-5.3
		c7.7,0,13.6,4.7,13.6,14.3v19.6h-5.5V-162.4z"/>
	<path class="st2" d="M575.9-172.3h-4.3v-4.6h4.3v-8.4h5.5v8.4h8.7v4.6h-8.7v19.6c0,3.3,1.2,4.4,4.6,4.4h4.1v4.7h-5
		c-5.9,0-9.2-2.4-9.2-9.1L575.9-172.3L575.9-172.3z"/>
	<path class="st2" d="M208.8-80.1h-18.5l-3.4,9.4h-5.8l15.3-42.1h6.4L218-70.7h-5.8L208.8-80.1z M199.6-106l-7.7,21.4h15.3
		L199.6-106z"/>
	<path class="st2" d="M254.3-70.7h-5.5v-4.9c-2.1,3.5-6.2,5.4-10.6,5.4c-7.7,0-13.7-4.7-13.7-14.3V-104h5.5v18.8
		c0,6.7,3.7,10.2,9.3,10.2c5.7,0,9.5-3.5,9.5-10.7V-104h5.5V-70.7L254.3-70.7z"/>
	<path class="st2" d="M264.9-99.4h-4.3v-4.6h4.3v-8.4h5.5v8.4h8.7v4.6h-8.7v19.6c0,3.3,1.2,4.4,4.6,4.4h4.1v4.7h-5
		c-5.9,0-9.2-2.4-9.2-9.1V-99.4z"/>
	<path class="st2" d="M300.3-70.1c-9.4,0-16.6-6.7-16.6-17.3c0-10.5,7.4-17.1,16.8-17.1c9.5,0,16.8,6.6,16.8,17.1
		C317.4-76.8,309.8-70.1,300.3-70.1z M300.3-75c5.8,0,11.4-3.9,11.4-12.4c0-8.4-5.5-12.3-11.2-12.3c-5.8,0-11.1,3.9-11.1,12.3
		C289.4-78.9,294.5-75,300.3-75z"/>
	<path class="st2" d="M372.7-89.5c0-6.8-3.6-10.3-9.1-10.3c-5.6,0-9.4,3.6-9.4,10.8v18.3h-5.5v-18.8c0-6.8-3.6-10.3-9.1-10.3
		c-5.6,0-9.4,3.6-9.4,10.8v18.3h-5.5V-104h5.5v4.8c2.2-3.5,6.1-5.4,10.5-5.4c5.5,0,10,2.4,12.2,7.4c1.9-4.8,6.7-7.4,11.8-7.4
		c7.6,0,13.5,4.7,13.5,14.3v19.6h-5.5V-89.5z"/>
	<path class="st2" d="M401-104.5c6.2,0,10.5,3.2,12.4,6.6v-6.1h5.6v33.3h-5.6v-6.2c-2,3.6-6.3,6.7-12.5,6.7c-8.9,0-15.7-7-15.7-17.3
		S392-104.5,401-104.5z M402.1-99.7c-6.1,0-11.2,4.4-11.2,12.3s5.2,12.5,11.2,12.5s11.3-4.6,11.3-12.4S408.1-99.7,402.1-99.7z"/>
	<path class="st2" d="M429.5-99.4h-4.3v-4.6h4.3v-8.4h5.5v8.4h8.7v4.6H435v19.6c0,3.3,1.2,4.4,4.6,4.4h4.1v4.7h-5
		c-5.9,0-9.2-2.4-9.2-9.1V-99.4L429.5-99.4z"/>
	<path class="st2" d="M465-70.1c-9.4,0-16.6-6.7-16.6-17.3c0-10.5,7.4-17.1,16.8-17.1c9.5,0,16.8,6.6,16.8,17.1
		C482-76.8,474.4-70.1,465-70.1z M465-75c5.8,0,11.4-3.9,11.4-12.4c0-8.4-5.5-12.3-11.2-12.3c-5.8,0-11.1,3.9-11.1,12.3
		C454-78.9,459.2-75,465-75z"/>
	<path class="st2" d="M513.7-89.5c0-6.8-3.7-10.3-9.3-10.3s-9.5,3.5-9.5,10.7v18.4h-5.5V-104h5.5v4.7c2.2-3.5,6.2-5.3,10.7-5.3
		c7.7,0,13.6,4.7,13.6,14.3v19.6h-5.5V-89.5z"/>
	<g>
		<g>
			<g>
				<path class="st2" d="M276.1-377.8h12.3l-33.6,89.2h-13.4l-33.6-89.2h12.4l28,76.9L276.1-377.8z"/>
				<path class="st2" d="M294.7-315.6h28.1v9.1h-28.1V-315.6z"/>
				<path class="st2" d="M336.4-378.1c0-4.5,3.5-7.9,7.9-7.9c4.2,0,7.7,3.5,7.7,7.9c0,4.5-3.5,7.9-7.7,7.9
					C339.8-370.1,336.4-373.6,336.4-378.1z M338.3-358.7h11.6v70.1h-11.6V-358.7L338.3-358.7z"/>
				<path class="st2" d="M422.5-308.5h-38.9l-7.2,19.8h-12.3l32.2-88.7h13.4l32.1,88.7h-12.3L422.5-308.5z M403-363l-16.1,45h32.2
					L403-363z"/>
				<path class="st2" d="M498.8-363.6v7.2l-28.9,67.8h-9.6l29.3-66.8h-40.1v-8.1L498.8-363.6L498.8-363.6z"/>
				<path class="st2" d="M533.8-365.2c14.7,0,22.7,8.5,22.7,19.3c0,8.6-5.4,15.4-13.3,17.2v0.5c8.7,2.1,14.7,8.5,14.7,19.3
					c0,11.6-8.1,20.8-23.8,20.8c-14.2,0-24.8-7.6-26-22.1h9.1c0.9,8,6.8,14.1,16.7,14.1c10.1,0,14.9-5.9,14.9-13.6
					c0-10.6-7.4-14.7-20.9-14.7h-2.4v-7.9h2.5c12.6-0.1,19.3-4,19.3-12.7c0-7.2-4.8-12.2-13.8-12.2c-8.8,0-14.1,5-15.1,12.3h-9.3
					C510.1-357.8,519.8-365.2,533.8-365.2z"/>
				<path class="st2" d="M570.8-352.9c0-15.1,10.7-26.1,26-26.1c15.1,0,25.8,11,25.8,26.1c0,15.1-10.7,26.2-25.8,26.2
					C581.5-326.6,570.8-337.8,570.8-352.9z M576.3-352.9c0,12.4,7.9,21.1,20.5,21.1c12.4,0,20.6-8.7,20.6-21.1
					c0-12.4-8.2-21.1-20.6-21.1C584.2-374,576.3-365.3,576.3-352.9z M602.2-350l7.2,10.6l-8.1,0.1l-6.1-10.2H593v10.2h-6.7v-27.5
					h12.3c5.8,0,9.6,3.3,9.6,8.6C608.2-354.1,605.9-351.2,602.2-350z M593-360.8v5.8h5.2c1.8,0,3.3-0.9,3.3-2.9s-1.5-2.8-3.3-2.8
					H593V-360.8z"/>
			</g>
		</g>
		<g>
			<g>
				<g>
					<path class="st2" d="M180.5-353c-0.9-7.2-3.9-13-5.2-15.2c0.9-15.1-2.1-26.4-8.9-33.8c-5.3-5.7-11.5-7.3-14.7-7.8
						c-4.8-10.2-13-12.1-18-11.7c-9.3-8.7-17.9-8.9-23.6-7.5c-3.7,0.9-6.7,2.7-8.5,4c-1.8-1.3-4.7-3.1-8.5-4
						c-5.7-1.4-14.3-1.2-23.6,7.5c-5-0.5-13.2,1.5-18,11.7c-3.2,0.5-9.4,2.1-14.7,7.8c-6.8,7.3-9.8,18.7-8.9,33.8
						c-1.3,2.2-4.3,7.9-5.2,15.2c-1,8.2,0.5,19.8,13.4,29.2c-1.5,8.8-0.1,23.9,14,31.3c-0.6,3.2-1,8.7,1.9,13.5
						c2.2,3.7,5.9,6.2,11,7.3c2.6,4,11.4,16.2,22.4,16.2c0.1,0,0.1,0,0.2,0c5.9-0.1,11.3-3.6,15.9-10.4c4.7,6.8,10,10.3,15.9,10.4
						c11.1,0.2,20.1-12.2,22.6-16.2c5.1-1.1,8.8-3.6,11-7.3c2.9-4.7,2.5-10.3,1.9-13.5c14-7.4,15.4-22.6,14-31.3
						C179.9-333.2,181.5-344.8,180.5-353z M162-327.6c-1.1,0.7-1.6,2-1.3,3.2c0.2,0.8,4.8,20.1-12.4,27.5c-1.4,0.6-2.2,2.2-1.7,3.7
						c0,0.1,2.1,6.5-0.7,11.1c-1.5,2.5-4.3,4.1-8.2,4.7c-0.9,0.1-1.7,0.7-2.1,1.5c-2.4,4-10.2,14.4-18,14.4h-0.1
						c-4.7-0.1-9.2-3.9-13.3-11.5c-0.5-1-1.7-1.6-2.8-1.6c-1.1,0-2.1,0.6-2.6,1.6c-4.1,7.6-8.6,11.4-13.3,11.5
						c-7.8,0.1-15.7-10.4-18.1-14.4c-0.5-0.8-1.2-1.3-2.1-1.5c-4-0.7-6.7-2.2-8.2-4.7c-2.8-4.6-0.7-11-0.7-11.1
						c0.5-1.5-0.2-3.1-1.7-3.7c-17.1-7.3-12.6-26.7-12.4-27.5c0.3-1.2-0.2-2.5-1.3-3.2c-22.5-15-8.2-37.2-7.6-38.1
						c0.4-0.6,0.5-1.2,0.5-1.9c-1-13.8,1.4-23.9,7.1-30.1c5.5-6,12.1-6.1,12.4-6.1c1.2,0,2.3-0.8,2.8-1.9c3.4-8.4,8.8-9.6,11.6-9.6
						c0.9,0,1.5,0.1,1.8,0.2c1,0.3,2.1,0,2.9-0.8c6.1-6.1,12.4-8.5,18.8-7c4.8,1.1,8,4.2,8,4.2c0.6,0.6,1.3,0.9,2.1,0.9h0.1
						c0.8,0,1.6-0.3,2.1-0.9c0,0,3.1-3,7.8-4.1c6.4-1.6,12.8,0.7,19,7c0.7,0.7,1.8,1,2.8,0.8c0.9-0.2,8.9-1.7,13.4,9.5
						c0.5,1.1,1.6,1.9,2.8,1.9c0.3,0,6.9,0.2,12.4,6.1c5.7,6.2,8.1,16.3,7.1,30.1c0,0.7,0.1,1.3,0.5,1.9c0,0.1,3.8,5.8,4.8,13.5
						C175.7-342.2,171.5-334,162-327.6z"/>
				</g>
			</g>
			<g>
				<g>
					<path class="st2" d="M101.6-424c-1.7,0-3,1.4-3,3v149.4c0,1.7,1.4,3,3,3c1.7,0,3-1.3,3-3V-421C104.6-422.6,103.3-424,101.6-424
						z"/>
				</g>
			</g>
			<g>
				<g>
					<path class="st2" d="M71.4-402.3c-6.7,0-12.1,5.4-12.1,12.1s5.4,12.1,12.1,12.1s12.1-5.4,12.1-12.1
						C83.5-396.9,78.1-402.3,71.4-402.3z M71.4-384.2c-3.3,0-6-2.7-6-6c0-3.3,2.7-6,6-6s6,2.7,6,6S74.7-384.2,71.4-384.2z"/>
				</g>
			</g>
			<g>
				<g>
					<path class="st2" d="M50.3-363.1c-6.7,0-12.1,5.4-12.1,12.1c0,6.7,5.4,12.1,12.1,12.1s12.1-5.4,12.1-12.1
						C62.4-357.7,57-363.1,50.3-363.1z M50.3-345c-3.3,0-6-2.7-6-6c0-3.3,2.7-6,6-6s6,2.7,6,6C56.3-347.7,53.6-345,50.3-345z"/>
				</g>
			</g>
			<g>
				<g>
					<path class="st2" d="M80.5-336c-6.7,0-12.1,5.4-12.1,12.1c0,6.7,5.4,12.1,12.1,12.1s12.1-5.4,12.1-12.1S87.1-336,80.5-336z
						 M80.5-317.9c-3.3,0-6-2.7-6-6c0-3.3,2.7-6,6-6s6,2.7,6,6C86.5-320.6,83.8-317.9,80.5-317.9z"/>
				</g>
			</g>
			<g>
				<g>
					<path class="st2" d="M80.5-302.8c-6.7,0-12.1,5.4-12.1,12.1s5.4,12.1,12.1,12.1s12.1-5.4,12.1-12.1
						C92.5-297.4,87.1-302.8,80.5-302.8z M80.5-284.7c-3.3,0-6-2.7-6-6c0-3.3,2.7-6,6-6s6,2.7,6,6C86.5-287.4,83.8-284.7,80.5-284.7
						z"/>
				</g>
			</g>
			<g>
				<g>
					<path class="st2" d="M71.4-384.2c-1.7,0-3,1.4-3,3v30.2c0,1.7,1.4,3,3,3c1.7,0,3-1.3,3-3v-30.2
						C74.4-382.9,73.1-384.2,71.4-384.2z"/>
				</g>
			</g>
			<g>
				<g>
					<path class="st2" d="M80.5-354.1H59.4c-1.7,0-3,1.4-3,3c0,1.7,1.4,3,3,3h21.1c1.7,0,3-1.4,3-3S82.1-354.1,80.5-354.1z"/>
				</g>
			</g>
			<g>
				<g>
					<path class="st2" d="M80.5-354.1c-1.7,0-3,1.4-3,3v18.1c0,1.7,1.4,3,3,3c1.7,0,3-1.3,3-3v-18.1
						C83.5-352.7,82.1-354.1,80.5-354.1z"/>
				</g>
			</g>
			<g>
				<g>
					<path class="st2" d="M80.5-317.9c-1.7,0-3,1.4-3,3v15.1c0,1.7,1.4,3,3,3c1.7,0,3-1.3,3-3v-15.1
						C83.5-316.5,82.1-317.9,80.5-317.9z"/>
				</g>
			</g>
			<circle class="st2" cx="70.9" cy="-389.7" r="8.5"/>
			<circle class="st2" cx="50.3" cy="-351.1" r="8.5"/>
			<circle class="st2" cx="80.5" cy="-323.9" r="8.5"/>
			<circle class="st2" cx="80.5" cy="-290.7" r="8.5"/>
		</g>
	</g>
</g>
<g>
	<path class="st2" d="M143.8-641.6h9.1l-15.6,42.4H127l-15.6-42.4h9.1l11.7,33.7L143.8-641.6z"/>
	<path class="st2" d="M157.9-641.6h8.5v42.4h-8.5V-641.6z"/>
	<path class="st2" d="M214.1-628.8h-9.8c-1.9-3.6-5.5-5.5-10-5.5c-7.6,0-12.9,5.4-12.9,13.9c0,8.6,5.3,14,13.2,14
		c6.6,0,10.8-3.8,12-9.8H192v-6.5h23v7.4c-1.7,8.6-9.4,16.5-20.7,16.5c-12.3,0-21.7-8.9-21.7-21.6s9.4-21.7,21.6-21.7
		C203.9-642.1,211.4-637.3,214.1-628.8z"/>
	<path class="st2" d="M221.5-641.6h8.5v42.4h-8.5V-641.6z"/>
	<path class="st2" d="M264.4-607.3h-16.9l-2.8,8.1h-8.9l15.2-42.5h9.9l15.2,42.5h-9L264.4-607.3z M255.9-631.8l-6.1,17.7h12.3
		L255.9-631.8z"/>
	<path class="st2" d="M298.6-641.5h5.5v42.3h-5.5V-641.5z"/>
	<path class="st2" d="M337.9-618c0-6.8-3.7-10.3-9.3-10.3c-5.7,0-9.5,3.5-9.5,10.7v18.4h-5.5v-33.3h5.5v4.7
		c2.2-3.5,6.2-5.3,10.7-5.3c7.7,0,13.6,4.7,13.6,14.3v19.6h-5.5L337.9-618L337.9-618z"/>
	<path class="st2" d="M353.6-627.9h-4.3v-4.6h4.3v-8.4h5.5v8.4h8.7v4.6h-8.7v19.6c0,3.3,1.2,4.4,4.6,4.4h4.1v4.7h-5
		c-5.9,0-9.2-2.4-9.2-9.1V-627.9L353.6-627.9z"/>
	<path class="st2" d="M388.9-598.6c-9.5,0-16.5-6.7-16.5-17.3c0-10.5,6.7-17.1,16.5-17.1c9.7,0,16,6.8,16,15.9
		c0,1.2-0.1,2.2-0.2,3.3h-26.6c0.4,6.7,5.2,10.5,10.8,10.5c5,0,8.1-2.6,9.4-6.1h6C402.6-603.4,397.2-598.6,388.9-598.6z
		 M378.2-618.3h21c0.1-6.5-4.8-10.1-10.5-10.1C383.3-628.3,378.8-624.8,378.2-618.3z"/>
	<path class="st2" d="M412.2-644.1h5.5v45h-5.5V-644.1z"/>
	<path class="st2" d="M427.2-644.1h5.5v45h-5.5V-644.1z"/>
	<path class="st2" d="M441.2-641.6c0-2.1,1.6-3.8,3.8-3.8c2,0,3.6,1.6,3.6,3.8c0,2.1-1.6,3.8-3.6,3.8
		C442.8-637.9,441.2-639.5,441.2-641.6z M442.1-632.5h5.5v33.3h-5.5V-632.5z"/>
	<path class="st2" d="M470.8-633c6.1,0,10.5,3,12.4,6.6v-6.1h5.6v34c0,9.2-6.1,15.7-15.9,15.7c-8.7,0-15-4.4-16.1-11.5h5.5
		c1.2,4,5.2,6.7,10.6,6.7c5.9,0,10.3-3.8,10.3-10.9v-7c-2,3.6-6.3,6.8-12.4,6.8c-8.9,0-15.8-7-15.8-17.3
		C455-626.3,461.9-633,470.8-633z M471.9-628.2c-6.1,0-11.2,4.4-11.2,12.3c0,7.9,5.2,12.5,11.2,12.5s11.3-4.6,11.3-12.4
		S478-628.2,471.9-628.2z"/>
	<path class="st2" d="M512.5-598.6c-9.5,0-16.5-6.7-16.5-17.3c0-10.5,6.7-17.1,16.5-17.1c9.7,0,16,6.8,16,15.9
		c0,1.2-0.1,2.2-0.2,3.3h-26.6c0.4,6.7,5.2,10.5,10.8,10.5c5,0,8.1-2.6,9.4-6.1h6C526.1-603.4,520.8-598.6,512.5-598.6z
		 M501.8-618.3h21c0.1-6.5-4.8-10.1-10.5-10.1C506.9-628.3,502.4-624.8,501.8-618.3z"/>
	<path class="st2" d="M560.2-618c0-6.8-3.7-10.3-9.3-10.3s-9.5,3.5-9.5,10.7v18.4h-5.5v-33.3h5.5v4.7c2.2-3.5,6.2-5.3,10.7-5.3
		c7.7,0,13.6,4.7,13.6,14.3v19.6h-5.5V-618z"/>
	<path class="st2" d="M575.9-627.9h-4.3v-4.6h4.3v-8.4h5.5v8.4h8.7v4.6h-8.7v19.6c0,3.3,1.2,4.4,4.6,4.4h4.1v4.7h-5
		c-5.9,0-9.2-2.4-9.2-9.1L575.9-627.9L575.9-627.9z"/>
	<path class="st2" d="M208.8-535.7h-18.5l-3.4,9.4h-5.8l15.3-42.1h6.4l15.2,42.1h-5.8L208.8-535.7z M199.6-561.6l-7.7,21.4h15.3
		L199.6-561.6z"/>
	<path class="st2" d="M254.3-526.3h-5.5v-4.9c-2.1,3.5-6.2,5.4-10.6,5.4c-7.7,0-13.7-4.7-13.7-14.3v-19.5h5.5v18.8
		c0,6.7,3.7,10.2,9.3,10.2c5.7,0,9.5-3.5,9.5-10.7v-18.3h5.5V-526.3L254.3-526.3z"/>
	<path class="st2" d="M264.9-555h-4.3v-4.6h4.3v-8.4h5.5v8.4h8.7v4.6h-8.7v19.6c0,3.3,1.2,4.4,4.6,4.4h4.1v4.7h-5
		c-5.9,0-9.2-2.4-9.2-9.1V-555z"/>
	<path class="st2" d="M300.3-525.7c-9.4,0-16.6-6.7-16.6-17.3c0-10.5,7.4-17.1,16.8-17.1c9.5,0,16.8,6.6,16.8,17.1
		C317.4-532.4,309.8-525.7,300.3-525.7z M300.3-530.6c5.8,0,11.4-3.9,11.4-12.4c0-8.4-5.5-12.3-11.2-12.3c-5.8,0-11.1,3.9-11.1,12.3
		C289.4-534.5,294.5-530.6,300.3-530.6z"/>
	<path class="st2" d="M372.7-545.1c0-6.8-3.6-10.3-9.1-10.3c-5.6,0-9.4,3.6-9.4,10.8v18.3h-5.5v-18.8c0-6.8-3.6-10.3-9.1-10.3
		c-5.6,0-9.4,3.6-9.4,10.8v18.3h-5.5v-33.3h5.5v4.8c2.2-3.5,6.1-5.4,10.5-5.4c5.5,0,10,2.4,12.2,7.4c1.9-4.8,6.7-7.4,11.8-7.4
		c7.6,0,13.5,4.7,13.5,14.3v19.6h-5.5V-545.1z"/>
	<path class="st2" d="M401-560.1c6.2,0,10.5,3.2,12.4,6.6v-6.1h5.6v33.3h-5.6v-6.2c-2,3.6-6.3,6.7-12.5,6.7c-8.9,0-15.7-7-15.7-17.3
		S392-560.1,401-560.1z M402.1-555.3c-6.1,0-11.2,4.4-11.2,12.3c0,7.9,5.2,12.5,11.2,12.5s11.3-4.6,11.3-12.4
		S408.1-555.3,402.1-555.3z"/>
	<path class="st2" d="M429.5-555h-4.3v-4.6h4.3v-8.4h5.5v8.4h8.7v4.6H435v19.6c0,3.3,1.2,4.4,4.6,4.4h4.1v4.7h-5
		c-5.9,0-9.2-2.4-9.2-9.1V-555L429.5-555z"/>
	<path class="st2" d="M465-525.7c-9.4,0-16.6-6.7-16.6-17.3c0-10.5,7.4-17.1,16.8-17.1c9.5,0,16.8,6.6,16.8,17.1
		C482-532.4,474.4-525.7,465-525.7z M465-530.6c5.8,0,11.4-3.9,11.4-12.4c0-8.4-5.5-12.3-11.2-12.3c-5.8,0-11.1,3.9-11.1,12.3
		C454-534.5,459.2-530.6,465-530.6z"/>
	<path class="st2" d="M513.7-545.1c0-6.8-3.7-10.3-9.3-10.3s-9.5,3.5-9.5,10.7v18.4h-5.5v-33.3h5.5v4.7c2.2-3.5,6.2-5.3,10.7-5.3
		c7.7,0,13.6,4.7,13.6,14.3v19.6h-5.5V-545.1z"/>
	<g>
		<g>
			<g>
				<path class="st2" d="M276.1-833.4h12.3l-33.6,89.2h-13.4l-33.6-89.2h12.4l28,76.9L276.1-833.4z"/>
				<path class="st2" d="M294.7-771.2h28.1v9.1h-28.1V-771.2z"/>
				<path class="st2" d="M336.4-833.7c0-4.5,3.5-7.9,7.9-7.9c4.2,0,7.7,3.5,7.7,7.9c0,4.5-3.5,7.9-7.7,7.9
					C339.8-825.7,336.4-829.2,336.4-833.7z M338.3-814.3h11.6v70.1h-11.6V-814.3L338.3-814.3z"/>
				<path class="st2" d="M422.5-764.1h-38.9l-7.2,19.8h-12.3l32.2-88.7h13.4l32.1,88.7h-12.3L422.5-764.1z M403-818.6l-16.1,45h32.2
					L403-818.6z"/>
				<path class="st2" d="M498.8-819.2v7.2l-28.9,67.8h-9.6l29.3-66.8h-40.1v-8.1L498.8-819.2L498.8-819.2z"/>
				<path class="st2" d="M533.8-820.8c14.7,0,22.7,8.5,22.7,19.3c0,8.6-5.4,15.4-13.3,17.2v0.5c8.7,2.1,14.7,8.5,14.7,19.3
					c0,11.6-8.1,20.8-23.8,20.8c-14.2,0-24.8-7.6-26-22.1h9.1c0.9,8,6.8,14.1,16.7,14.1c10.1,0,14.9-5.9,14.9-13.6
					c0-10.6-7.4-14.7-20.9-14.7h-2.4v-7.9h2.5c12.6-0.1,19.3-4,19.3-12.7c0-7.2-4.8-12.2-13.8-12.2c-8.8,0-14.1,5-15.1,12.3h-9.3
					C510.1-813.4,519.8-820.8,533.8-820.8z"/>
				<path class="st2" d="M570.8-808.5c0-15.1,10.7-26.1,26-26.1c15.1,0,25.8,11,25.8,26.1c0,15.1-10.7,26.2-25.8,26.2
					C581.5-782.2,570.8-793.4,570.8-808.5z M576.3-808.5c0,12.4,7.9,21.1,20.5,21.1c12.4,0,20.6-8.7,20.6-21.1
					c0-12.4-8.2-21.1-20.6-21.1C584.2-829.6,576.3-820.9,576.3-808.5z M602.2-805.6l7.2,10.6l-8.1,0.1l-6.1-10.2H593v10.2h-6.7
					v-27.5h12.3c5.8,0,9.6,3.3,9.6,8.6C608.2-809.7,605.9-806.8,602.2-805.6z M593-816.4v5.8h5.2c1.8,0,3.3-0.9,3.3-2.9
					s-1.5-2.8-3.3-2.8L593-816.4L593-816.4z"/>
			</g>
		</g>
		<g>
			<g>
				<g>
					<path class="st1" d="M180.5-808.6c-0.9-7.2-3.9-13-5.2-15.2c0.9-15.1-2.1-26.4-8.9-33.8c-5.3-5.7-11.5-7.3-14.7-7.8
						c-4.8-10.2-13-12.1-18-11.7c-9.3-8.7-17.9-8.9-23.6-7.5c-3.7,0.9-6.7,2.7-8.5,4c-1.8-1.3-4.7-3.1-8.5-4
						c-5.7-1.4-14.3-1.2-23.6,7.5c-5-0.5-13.2,1.5-18,11.7c-3.2,0.5-9.4,2.1-14.7,7.8c-6.8,7.3-9.8,18.7-8.9,33.8
						c-1.3,2.2-4.3,7.9-5.2,15.2c-1,8.2,0.5,19.8,13.4,29.2c-1.5,8.8-0.1,23.9,14,31.3c-0.6,3.2-1,8.7,1.9,13.5
						c2.2,3.7,5.9,6.2,11,7.3c2.6,4,11.4,16.2,22.4,16.2c0.1,0,0.1,0,0.2,0c5.9-0.1,11.3-3.6,15.9-10.4c4.7,6.8,10,10.3,15.9,10.4
						c11.1,0.2,20.1-12.2,22.6-16.2c5.1-1.1,8.8-3.6,11-7.3c2.9-4.7,2.5-10.3,1.9-13.5c14-7.4,15.4-22.6,14-31.3
						C179.9-788.8,181.5-800.4,180.5-808.6z M162-783.2c-1.1,0.7-1.6,2-1.3,3.2c0.2,0.8,4.8,20.1-12.4,27.5
						c-1.4,0.6-2.2,2.2-1.7,3.7c0,0.1,2.1,6.5-0.7,11.1c-1.5,2.5-4.3,4.1-8.2,4.7c-0.9,0.1-1.7,0.7-2.1,1.5
						c-2.4,4-10.2,14.4-18,14.4h-0.1c-4.7-0.1-9.2-3.9-13.3-11.5c-0.5-1-1.7-1.6-2.8-1.6c-1.1,0-2.1,0.6-2.6,1.6
						c-4.1,7.6-8.6,11.4-13.3,11.5c-7.8,0.1-15.7-10.4-18.1-14.4c-0.5-0.8-1.2-1.3-2.1-1.5c-4-0.7-6.7-2.2-8.2-4.7
						c-2.8-4.6-0.7-11-0.7-11.1c0.5-1.5-0.2-3.1-1.7-3.7c-17.1-7.3-12.6-26.7-12.4-27.5c0.3-1.2-0.2-2.5-1.3-3.2
						c-22.5-15-8.2-37.2-7.6-38.1c0.4-0.6,0.5-1.2,0.5-1.9c-1-13.8,1.4-23.9,7.1-30.1c5.5-6,12.1-6.1,12.4-6.1
						c1.2,0,2.3-0.8,2.8-1.9c3.4-8.4,8.8-9.6,11.6-9.6c0.9,0,1.5,0.1,1.8,0.2c1,0.3,2.1,0,2.9-0.8c6.1-6.1,12.4-8.5,18.8-7
						c4.8,1.1,8,4.2,8,4.2c0.6,0.6,1.3,0.9,2.1,0.9h0.1c0.8,0,1.6-0.3,2.1-0.9c0,0,3.1-3,7.8-4.1c6.4-1.6,12.8,0.7,19,7
						c0.7,0.7,1.8,1,2.8,0.8c0.9-0.2,8.9-1.7,13.4,9.5c0.5,1.1,1.6,1.9,2.8,1.9c0.3,0,6.9,0.2,12.4,6.1c5.7,6.2,8.1,16.3,7.1,30.1
						c0,0.7,0.1,1.3,0.5,1.9c0,0.1,3.8,5.8,4.8,13.5C175.7-797.8,171.5-789.6,162-783.2z"/>
				</g>
			</g>
			<g>
				<g>
					<path class="st1" d="M101.6-879.6c-1.7,0-3,1.4-3,3v149.4c0,1.7,1.4,3,3,3c1.7,0,3-1.3,3-3v-149.4
						C104.6-878.2,103.3-879.6,101.6-879.6z"/>
				</g>
			</g>
			<g>
				<g>
					<path class="st1" d="M71.4-857.9c-6.7,0-12.1,5.4-12.1,12.1c0,6.7,5.4,12.1,12.1,12.1s12.1-5.4,12.1-12.1
						C83.5-852.5,78.1-857.9,71.4-857.9z M71.4-839.8c-3.3,0-6-2.7-6-6c0-3.3,2.7-6,6-6s6,2.7,6,6C77.4-842.5,74.7-839.8,71.4-839.8
						z"/>
				</g>
			</g>
			<g>
				<g>
					<path class="st1" d="M50.3-818.7c-6.7,0-12.1,5.4-12.1,12.1s5.4,12.1,12.1,12.1s12.1-5.4,12.1-12.1
						C62.4-813.3,57-818.7,50.3-818.7z M50.3-800.6c-3.3,0-6-2.7-6-6s2.7-6,6-6s6,2.7,6,6S53.6-800.6,50.3-800.6z"/>
				</g>
			</g>
			<g>
				<g>
					<path class="st1" d="M80.5-791.6c-6.7,0-12.1,5.4-12.1,12.1c0,6.7,5.4,12.1,12.1,12.1s12.1-5.4,12.1-12.1
						S87.1-791.6,80.5-791.6z M80.5-773.5c-3.3,0-6-2.7-6-6c0-3.3,2.7-6,6-6s6,2.7,6,6C86.5-776.2,83.8-773.5,80.5-773.5z"/>
				</g>
			</g>
			<g>
				<g>
					<path class="st1" d="M80.5-758.4c-6.7,0-12.1,5.4-12.1,12.1c0,6.7,5.4,12.1,12.1,12.1s12.1-5.4,12.1-12.1
						C92.5-753,87.1-758.4,80.5-758.4z M80.5-740.3c-3.3,0-6-2.7-6-6c0-3.3,2.7-6,6-6s6,2.7,6,6C86.5-743,83.8-740.3,80.5-740.3z"/>
				</g>
			</g>
			<g>
				<g>
					<path class="st1" d="M71.4-839.8c-1.7,0-3,1.4-3,3v30.2c0,1.7,1.4,3,3,3c1.7,0,3-1.3,3-3v-30.2
						C74.4-838.5,73.1-839.8,71.4-839.8z"/>
				</g>
			</g>
			<g>
				<g>
					<path class="st1" d="M80.5-809.7H59.4c-1.7,0-3,1.4-3,3c0,1.7,1.4,3,3,3h21.1c1.7,0,3-1.4,3-3
						C83.5-808.3,82.1-809.7,80.5-809.7z"/>
				</g>
			</g>
			<g>
				<g>
					<path class="st1" d="M80.5-809.7c-1.7,0-3,1.4-3,3v18.1c0,1.7,1.4,3,3,3c1.7,0,3-1.3,3-3v-18.1
						C83.5-808.3,82.1-809.7,80.5-809.7z"/>
				</g>
			</g>
			<g>
				<g>
					<path class="st1" d="M80.5-773.5c-1.7,0-3,1.4-3,3v15.1c0,1.7,1.4,3,3,3c1.7,0,3-1.3,3-3v-15.1
						C83.5-772.1,82.1-773.5,80.5-773.5z"/>
				</g>
			</g>
			<circle class="st1" cx="70.9" cy="-845.3" r="8.5"/>
			<circle class="st1" cx="50.3" cy="-806.7" r="8.5"/>
			<circle class="st1" cx="80.5" cy="-779.5" r="8.5"/>
			<circle class="st1" cx="80.5" cy="-746.3" r="8.5"/>
		</g>
	</g>
</g>
</svg>
